<svg width="10" height="18" viewBox="0 0 10 18" fill="none" xmlns="http://www.w3.org/2000/svg">
<path d="M0.988992 0.499318C0.858158 0.633265 0.784912 0.813078 0.784912 1.00032C0.784912 1.18756 0.858158 1.36737 0.988992 1.50132L8.29849 8.99981L0.988992 16.4968C0.858158 16.6308 0.784912 16.8106 0.784912 16.9978C0.784912 17.185 0.858158 17.3649 0.988992 17.4988C1.05259 17.5641 1.12862 17.616 1.21261 17.6515C1.29659 17.6869 1.38683 17.7052 1.47799 17.7052C1.56915 17.7052 1.65939 17.6869 1.74338 17.6515C1.82736 17.616 1.9034 17.5641 1.96699 17.4988L9.73999 9.52331C9.87651 9.38325 9.95292 9.1954 9.95292 8.99981C9.95292 8.80422 9.87651 8.61637 9.73999 8.47631L1.96699 0.500819C1.9034 0.435504 1.82736 0.38359 1.74338 0.348143C1.65939 0.312696 1.56915 0.294434 1.47799 0.294434C1.38683 0.294434 1.29659 0.312696 1.21261 0.348143C1.12862 0.38359 1.05259 0.435504 0.988992 0.500819V0.499318Z" fill="#DC143C"/>
</svg>
