<svg width="19" height="18" viewBox="0 0 19 18" fill="none" xmlns="http://www.w3.org/2000/svg">
<path fill-rule="evenodd" clip-rule="evenodd" d="M2.84027 6.79261C4.62759 10.6783 7.80807 13.7675 11.7618 15.4415L11.7743 15.4468L12.5381 15.7867C13.5108 16.2193 14.654 15.912 15.2776 15.0503L16.552 13.2894C16.6298 13.1818 16.6097 13.0323 16.5063 12.9489L14.2816 11.157C14.171 11.0679 14.0083 11.0887 13.9237 11.2027L13.0579 12.3692C12.8476 12.6525 12.4678 12.7509 12.1461 12.6055C9.18967 11.2697 6.81396 8.89781 5.47603 5.94611C5.33041 5.62486 5.42901 5.24571 5.71276 5.03577L6.88114 4.17128C6.99531 4.08681 7.01609 3.92444 6.92686 3.81403L5.13182 1.59252C5.04839 1.48927 4.89865 1.46922 4.79092 1.54687L3.01762 2.82499C2.14883 3.45118 1.84288 4.60219 2.28634 5.57609L2.83968 6.79131C2.83988 6.79174 2.84008 6.79217 2.84027 6.79261ZM11.1699 16.8176C6.87391 14.9969 3.41854 11.6392 1.4765 7.4162L1.47533 7.41366L0.920826 6.19589C0.181726 4.57273 0.691654 2.65438 2.13964 1.61073L3.91293 0.332606C4.66705 -0.210934 5.71528 -0.0705534 6.29927 0.652187L8.09432 2.87369C8.71887 3.64663 8.5734 4.78321 7.77424 5.37451L7.10474 5.86987C8.23566 8.06077 10.028 9.8503 12.2224 10.9794L12.7186 10.311C13.3108 9.51308 14.4492 9.36784 15.2234 9.99141L17.4481 11.7833C18.1722 12.3666 18.3127 13.4136 17.7678 14.1665L16.4934 15.9274C15.4541 17.3636 13.5487 17.8757 11.9277 17.1546L11.1699 16.8176Z" fill="#DC143C"/>
</svg>
