<svg width="22" height="24" viewBox="0 0 22 24" fill="none" xmlns="http://www.w3.org/2000/svg">
<path d="M10.9999 0.3125C8.06591 0.3125 5.68742 2.69099 5.68742 5.625C5.68742 8.55901 8.06591 10.9375 10.9999 10.9375C13.9339 10.9375 16.3124 8.55901 16.3124 5.625C16.3124 2.69099 13.9339 0.3125 10.9999 0.3125Z" fill="#DC143C"/>
<path d="M5.33325 13.7708C2.39924 13.7708 0.020752 16.1493 0.020752 19.0833V20.7667C0.020752 21.8338 0.794087 22.7436 1.84722 22.9156C7.90889 23.9052 14.0909 23.9052 20.1526 22.9156C21.2058 22.7436 21.9791 21.8338 21.9791 20.7667V19.0833C21.9791 16.1493 19.6006 13.7708 16.6666 13.7708H16.1837C15.9223 13.7708 15.6626 13.8122 15.4142 13.8933L14.188 14.2937C12.1164 14.9701 9.8834 14.9701 7.81183 14.2937L6.58569 13.8933C6.33723 13.8122 6.07751 13.7708 5.81615 13.7708H5.33325Z" fill="#DC143C"/>
</svg>
