<?xml version="1.0" standalone="no"?>
<!DOCTYPE svg PUBLIC "-//W3C//DTD SVG 20010904//EN"
 "http://www.w3.org/TR/2001/REC-SVG-20010904/DTD/svg10.dtd">
<svg version="1.0" xmlns="http://www.w3.org/2000/svg"
 width="63.000000pt" height="57.000000pt" viewBox="0 0 63.000000 57.000000"
 preserveAspectRatio="xMidYMid meet">

<g transform="translate(0.000000,57.000000) scale(0.100000,-0.100000)"
fill="#000000" stroke="none">
<path d="M290 516 c0 -18 -7 -25 -30 -29 -42 -9 -108 -72 -122 -118 -9 -31
-16 -39 -35 -39 -16 0 -23 -6 -23 -20 0 -14 7 -20 23 -20 19 0 26 -8 35 -39
14 -46 77 -106 121 -116 24 -5 31 -12 31 -31 0 -17 6 -24 20 -24 14 0 20 7 20
24 0 19 7 26 31 31 42 10 99 62 121 113 13 29 25 42 38 42 13 0 20 7 20 20 0
13 -7 20 -19 20 -13 0 -27 17 -44 53 -27 53 -91 107 -129 107 -13 0 -18 8 -18
25 0 18 -5 25 -20 25 -14 0 -20 -7 -20 -24z m87 -83 c46 -22 73 -67 73 -123 0
-111 -112 -174 -210 -119 -47 27 -70 66 -70 121 0 104 109 168 207 121z"/>
<path d="M269 362 c-45 -38 -16 -122 43 -122 25 0 68 44 68 70 0 26 -43 70
-68 70 -11 0 -30 -8 -43 -18z"/>
</g>
</svg>
