<svg width="20" height="20" viewBox="0 0 20 20" fill="none" xmlns="http://www.w3.org/2000/svg">
<path d="M11.5 7.74995C11.5 7.33574 11.1642 6.99995 10.75 6.99995H4.75C4.33579 6.99995 4 7.33574 4 7.74995C4 8.16417 4.33579 8.49995 4.75 8.49995H10.75C11.1642 8.49995 11.5 8.16417 11.5 7.74995Z" fill="#455A64"/>
<path d="M10.5 10.75C10.5 10.3357 10.1642 9.99995 9.75 9.99995H4.75C4.33579 9.99995 4 10.3357 4 10.75C4 11.1642 4.33579 11.5 4.75 11.5H9.75C10.1642 11.5 10.5 11.1642 10.5 10.75Z" fill="#455A64"/>
<path d="M10.75 13C11.1642 13 11.5 13.3357 11.5 13.75C11.5 14.1642 11.1642 14.5 10.75 14.5H4.75C4.33579 14.5 4 14.1642 4 13.75C4 13.3357 4.33579 13 4.75 13H10.75Z" fill="#455A64"/>
<path fill-rule="evenodd" clip-rule="evenodd" d="M4 19.75H17C18.5188 19.75 19.75 18.5187 19.75 17V11.5C19.75 11.0857 19.4142 10.75 19 10.75H15.75V2.94315C15.75 1.51975 14.1411 0.691782 12.9828 1.51912L12.8078 1.64415C12.0273 2.20164 10.9701 2.19977 10.1859 1.63966C8.88206 0.708329 7.11794 0.708329 5.81407 1.63966C5.02992 2.19977 3.9727 2.20164 3.19221 1.64415L3.01717 1.51912C1.8589 0.691782 0.25 1.51975 0.25 2.94315V16C0.25 18.071 1.92893 19.75 4 19.75ZM6.68593 2.86026C7.46825 2.30146 8.53175 2.30146 9.31407 2.86026C10.6161 3.79028 12.3739 3.79739 13.6796 2.86475L13.8547 2.73972C14.0202 2.62153 14.25 2.73981 14.25 2.94315V17C14.25 17.4501 14.3581 17.8749 14.5499 18.25H4C2.75736 18.25 1.75 17.2426 1.75 16V2.94315C1.75 2.73981 1.97984 2.62153 2.14531 2.73972L2.32036 2.86475C3.62605 3.79739 5.3839 3.79028 6.68593 2.86026ZM15.75 17V12.25H18.25V17C18.25 17.6903 17.6904 18.25 17 18.25C16.3096 18.25 15.75 17.6903 15.75 17Z" fill="#455A64"/>
</svg>
