<svg width="16" height="17" viewBox="0 0 16 17" fill="none" xmlns="http://www.w3.org/2000/svg">
<path d="M2.12349 11.6025L2.16929 11.264L1.8706 11.0983C1.03806 10.6363 0.5 9.75752 0.5 8.78776C0.5 7.818 1.03806 6.93917 1.8706 6.47721L2.16884 6.31172L2.12358 5.97365C2.10796 5.85698 2.1 5.74175 2.1 5.62851C2.1 4.05513 3.54156 2.77732 5.15028 2.99326L5.48462 3.03814L5.65141 2.74492C6.11755 1.92545 7.00825 1.38965 8 1.38965C8.99175 1.38965 9.88245 1.92545 10.3486 2.74492L10.5154 3.03822L10.8499 2.99324C12.4548 2.77736 13.9 4.05542 13.9 5.62851C13.9 5.74175 13.892 5.85698 13.8764 5.97365L13.8312 6.31172L14.1294 6.47721C14.9619 6.93917 15.5 7.818 15.5 8.78776C15.5 9.75752 14.9619 10.6363 14.1294 11.0983L13.8312 11.2638L13.8764 11.6019C13.892 11.7185 13.9 11.8338 13.9 11.947C13.9 13.5193 12.4554 14.7956 10.849 14.5822L10.5151 14.5378L10.3486 14.8306C9.88245 15.6501 8.99175 16.1859 8 16.1859C7.00825 16.1859 6.11755 15.6501 5.65141 14.8306L5.48491 14.5379L5.15109 14.5821C3.54107 14.7956 2.10021 13.5197 2.1 11.9473C2.10017 11.832 2.10802 11.7169 2.12349 11.6025ZM2.85459 6.3977L2.9804 6.69904L2.65465 6.78455L2.7816 7.26815L2.65272 6.78506C2.20959 6.90327 1.81703 7.16263 1.53645 7.52441C1.25579 7.8863 1.1031 8.33029 1.1031 8.78776C1.1031 9.24522 1.25579 9.68921 1.53645 10.0511C1.81703 10.4129 2.20959 10.6722 2.65272 10.7905L2.65465 10.791L2.98039 10.8765L2.85474 11.1775C2.85469 11.1776 2.85464 11.1777 2.8546 11.1778C2.8546 11.1778 2.85459 11.1778 2.85459 11.1778C2.75316 11.4204 2.7 11.6857 2.7 11.947C2.7 13.1003 3.64752 14.0266 4.8 14.0266L4.80126 14.0266C5.06544 14.026 5.32712 13.9747 5.57183 13.8755L5.5723 13.8753L5.89149 13.7455L5.9788 14.0697L5.97885 14.0699C6.09819 14.5124 6.36192 14.9023 6.72762 15.1798C7.09322 15.4572 7.54053 15.607 8 15.607C8.45947 15.607 8.90678 15.4572 9.27238 15.1798C9.63808 14.9023 9.90181 14.5124 10.0212 14.0699L10.0212 14.0697L10.1085 13.7455L10.4277 13.8753L10.4279 13.8754C10.672 13.9745 10.9374 14.0266 11.2 14.0266C12.3525 14.0266 13.3 13.1003 13.3 11.947C13.3 11.6855 13.2468 11.4201 13.1453 11.1775L13.0196 10.8765L13.3453 10.791L13.3473 10.7905C13.7904 10.6722 14.183 10.4129 14.4635 10.0511C14.7442 9.68921 14.8969 9.24522 14.8969 8.78776C14.8969 8.33029 14.7442 7.8863 14.4635 7.52441C14.183 7.16263 13.7904 6.90327 13.3473 6.78505L13.3453 6.78454L13.0196 6.69904L13.1453 6.39805C13.2468 6.15538 13.3 5.88997 13.3 5.62851C13.3 4.47519 12.3525 3.54889 11.2 3.54889C10.9374 3.54889 10.672 3.60105 10.4279 3.70014L10.4277 3.70022L10.1085 3.82999L10.0212 3.5058L10.0212 3.50562C9.90181 3.06314 9.63808 2.67323 9.27238 2.39573C8.90678 2.11832 8.45947 1.9685 8 1.9685C7.54053 1.9685 7.09322 2.11832 6.72762 2.39573C6.36192 2.67323 6.09819 3.06314 5.97885 3.50562L5.9788 3.5058L5.89149 3.82999L5.5723 3.70022L5.5721 3.70014C5.32802 3.60105 5.06259 3.54889 4.8 3.54889C3.64752 3.54889 2.7 4.47519 2.7 5.62851L2.7 5.62965C2.7006 5.89314 2.75309 6.15385 2.85439 6.39722L2.85459 6.3977Z" fill="#1BAD64" stroke="#1BAD64"/>
</svg>
