<svg width="11" height="9" viewBox="0 0 11 9" fill="none" xmlns="http://www.w3.org/2000/svg">
<path d="M9.51022 0.778211C8.59345 1.44192 7.78528 2.1647 7.01226 3.00562C6.2552 3.8257 5.6962 4.55891 5.04775 5.57705C4.904 5.8064 4.77304 6.00794 4.76026 6.02184C4.74748 6.03574 4.63887 5.80987 4.52068 5.51798C4.40249 5.22609 4.29389 4.96547 4.28111 4.93767C4.25236 4.8786 3.92335 5.46933 3.58794 6.18516L3.35156 6.68902L3.60391 7.29713C3.74127 7.63072 3.91696 8.07203 3.99362 8.28053L4.13417 8.65234L4.72512 8.64539L5.31288 8.63497L5.36079 8.4786C5.48856 8.03729 5.84313 7.05389 6.05715 6.5396C6.93559 4.42339 8.09833 2.56779 9.61244 0.861609C9.79451 0.653115 9.93506 0.48632 9.92548 0.48632C9.9159 0.48632 9.73063 0.618365 9.51022 0.778211Z" fill="#003893"/>
<path d="M6.00257 2.21658C4.55555 3.2799 3.39601 4.53434 2.40257 6.10847L2.17578 6.46986L2.1087 6.29959C2.07356 6.20924 1.98092 5.98337 1.90745 5.80268L1.7701 5.47256L1.04179 5.46214C0.642503 5.45866 0.319877 5.46561 0.326265 5.47951C0.329459 5.49689 0.463621 5.76098 0.616948 6.07372C0.923603 6.68183 1.35164 7.66523 1.55288 8.20731L1.67427 8.54785H2.15661H2.63576L2.78909 8.07874C3.47267 5.97642 4.54596 4.07218 5.99299 2.40422C6.2134 2.15403 6.38909 1.94554 6.3827 1.94554C6.37631 1.94554 6.20701 2.06716 6.00257 2.21658Z" fill="#DC143C"/>
</svg>