<svg width="10" height="17" viewBox="0 0 10 17" fill="none" xmlns="http://www.w3.org/2000/svg">
<path d="M9.76467 9.72471C9.74519 9.67018 9.72202 9.61703 9.69533 9.56563L9.69867 9.57295C9.60133 9.34598 8.81867 7.83639 8.688 7.63072L5.054 0.629883L1.32733 7.80244C1.20067 8.00878 0.506 9.34665 0.41 9.57295L0.372 9.65682C0.12415 10.2599 -0.00225745 10.9059 1.50594e-07 11.5578C1.50594e-07 12.8962 0.532544 14.1799 1.48048 15.1263C2.42841 16.0727 3.71409 16.6044 5.05467 16.6044C6.39525 16.6044 7.68092 16.0727 8.62886 15.1263C9.57679 14.1799 10.1093 12.8962 10.1093 11.5578V11.5538L10.11 11.4866C10.11 10.8509 9.98333 10.2445 9.75333 9.6921L9.76467 9.72338V9.72471ZM5.05667 15.2858C4.41005 15.286 3.77455 15.118 3.21272 14.7984C2.65089 14.4788 2.1821 14.0187 1.85251 13.4632C1.52293 12.9078 1.3439 12.2763 1.33305 11.6308C1.32221 10.9853 1.47992 10.3481 1.79067 9.78195L1.78067 9.80126C1.73183 10.0604 1.70728 10.3236 1.70733 10.5873V10.588C1.70804 11.7698 2.17858 12.903 3.01559 13.7387C3.8526 14.5744 4.98762 15.0442 6.17133 15.0449C6.24667 15.0449 6.32733 15.0449 6.402 15.0409C5.97591 15.2044 5.52313 15.2874 5.06667 15.2858H5.05133H5.052H5.05667Z" fill="#DC143C"/>
</svg>
