<svg width="62" height="62" viewBox="0 0 62 62" fill="none" xmlns="http://www.w3.org/2000/svg">
<path d="M39.8077 9.73793L36.2388 6.07993L39.0094 3.37518L41.4197 5.84355L44.8684 5.80093C46.3613 5.78326 47.8426 6.06427 49.2252 6.62742C50.6079 7.19058 51.864 8.02451 52.9197 9.08018C53.9753 10.1359 54.8093 11.392 55.3724 12.7746C55.9356 14.1573 56.2166 15.6386 56.1989 17.1314L56.1602 20.5802L58.6247 22.9904C59.6921 24.0335 60.5402 25.2793 61.1193 26.6548C61.6984 28.0303 61.9967 29.5076 61.9967 31.0001C61.9967 32.4925 61.6984 33.9698 61.1193 35.3453C60.5402 36.7208 59.6921 37.9666 58.6247 39.0097L56.1563 41.4199L56.1989 44.8687C56.2166 46.3615 55.9356 47.8428 55.3724 49.2255C54.8093 50.6081 53.9753 51.8642 52.9197 52.9199C51.864 53.9756 50.6079 54.8095 49.2252 55.3727C47.8426 55.9358 46.3613 56.2168 44.8684 56.1992L41.4197 56.1604L39.0094 58.6249C37.9664 59.6923 36.7205 60.5405 35.3451 61.1196C33.9696 61.6986 32.4922 61.9969 30.9998 61.9969C29.5074 61.9969 28.03 61.6986 26.6546 61.1196C25.2791 60.5405 24.0332 59.6923 22.9902 58.6249L20.5799 56.1565L17.1312 56.1992C15.6383 56.2168 14.157 55.9358 12.7744 55.3727C11.3917 54.8095 10.1356 53.9756 9.07994 52.9199C8.02427 51.8642 7.19033 50.6081 6.62718 49.2255C6.06402 47.8428 5.78302 46.3615 5.80069 44.8687L5.83944 41.4199L3.37494 39.0097C2.30753 37.9666 1.45937 36.7208 0.8803 35.3453C0.30123 33.9698 0.00292969 32.4925 0.00292969 31.0001C0.00292969 29.5076 0.30123 28.0303 0.8803 26.6548C1.45937 25.2793 2.30753 24.0335 3.37494 22.9904L5.84331 20.5802L5.80069 17.1314C5.78302 15.6386 6.06402 14.1573 6.62718 12.7746C7.19033 11.392 8.02427 10.1359 9.07994 9.08018C10.1356 8.02451 11.3917 7.19058 12.7744 6.62742C14.157 6.06427 15.6383 5.78326 17.1312 5.80093L20.5799 5.83968L22.9902 3.37518C24.0332 2.30777 25.2791 1.45961 26.6546 0.880544C28.03 0.301474 29.5074 0.00317383 30.9998 0.00317383C32.4922 0.00317383 33.9696 0.301474 35.3451 0.880544C36.7205 1.45961 37.9664 2.30777 39.0094 3.37518L36.2388 6.07993C35.5567 5.3816 34.7418 4.8267 33.8421 4.44784C32.9424 4.06898 31.976 3.87382 30.9998 3.87382C30.0236 3.87382 29.0572 4.06898 28.1575 4.44784C27.2578 4.8267 26.443 5.3816 25.7608 6.07993L22.1958 9.73793L17.0808 9.67593C16.105 9.66502 15.1368 9.84924 14.2332 10.2178C13.3296 10.5863 12.5088 11.1317 11.8189 11.8219C11.129 12.5121 10.5841 13.3333 10.216 14.2371C9.84798 15.1409 9.66426 16.1091 9.67568 17.0849L9.73769 22.1922L6.07969 25.7611C5.38136 26.4432 4.82645 27.2581 4.4476 28.1578C4.06874 29.0575 3.87357 30.0238 3.87357 31.0001C3.87357 31.9763 4.06874 32.9426 4.4476 33.8423C4.82645 34.742 5.38136 35.5569 6.07969 36.2391L9.73769 39.8041L9.67568 44.919C9.66478 45.8949 9.84899 46.863 10.2175 47.7666C10.586 48.6702 11.1314 49.4911 11.8217 50.181C12.5119 50.8708 13.333 51.4158 14.2368 51.7838C15.1406 52.1519 16.1089 52.3356 17.0847 52.3242L22.1919 52.2622L25.7608 55.9202C26.443 56.6185 27.2578 57.1734 28.1575 57.5523C29.0572 57.9311 30.0236 58.1263 30.9998 58.1263C31.976 58.1263 32.9424 57.9311 33.8421 57.5523C34.7418 57.1734 35.5567 56.6185 36.2388 55.9202L39.8038 52.2622L44.9188 52.3242C45.8946 52.3351 46.8628 52.1509 47.7664 51.7823C48.67 51.4138 49.4908 50.8684 50.1807 50.1782C50.8706 49.488 51.4155 48.6668 51.7836 47.763C52.1516 46.8592 52.3354 45.891 52.3239 44.9152L52.2619 39.8079L55.9199 36.2391C56.6183 35.5569 57.1732 34.742 57.552 33.8423C57.9309 32.9426 58.126 31.9763 58.126 31.0001C58.126 30.0238 57.9309 29.0575 57.552 28.1578C57.1732 27.2581 56.6183 26.4432 55.9199 25.7611L52.2619 22.1961L52.3239 17.0811C52.3348 16.1052 52.1506 15.1371 51.7821 14.2335C51.4136 13.3299 50.8682 12.509 50.178 11.8191C49.4877 11.1293 48.6666 10.5843 47.7628 10.2163C46.859 9.84822 45.8907 9.66451 44.9149 9.67593L39.8077 9.73793Z" fill="#DC143C"/>
</svg>
