<svg width="16" height="18" viewBox="0 0 16 18" fill="none" xmlns="http://www.w3.org/2000/svg">
<path fill-rule="evenodd" clip-rule="evenodd" d="M8.64481 2.26387C8.24812 2.025 7.75188 2.025 7.35519 2.26387L6.83888 2.57476C5.45765 3.40647 3.90703 3.91683 2.30183 4.06806L1.97655 4.09871C1.84813 4.11081 1.75 4.21862 1.75 4.34761V5.9915C1.75 8.49904 2.76803 10.8991 4.57088 12.642L7.82624 15.789C7.92314 15.8827 8.07686 15.8827 8.17376 15.789L11.4291 12.642C13.232 10.8991 14.25 8.49903 14.25 5.9915V4.34761C14.25 4.21862 14.1519 4.11081 14.0235 4.09871L13.6982 4.06806C12.093 3.91683 10.5423 3.40647 9.16112 2.57476L8.64481 2.26387ZM6.58141 0.978849C7.45413 0.45334 8.54586 0.453339 9.41859 0.978849L9.93489 1.28974C11.1234 2.0054 12.4576 2.44455 13.8389 2.57468L14.1641 2.60532C15.0631 2.69002 15.75 3.4447 15.75 4.34761V5.9915C15.75 8.90566 14.5669 11.695 12.4717 13.7204L9.21632 16.8674C8.53801 17.5232 7.46199 17.5232 6.78368 16.8674L3.52832 13.7204C1.43311 11.695 0.25 8.90566 0.25 5.9915V4.34761C0.25 3.4447 0.936926 2.69002 1.83585 2.60532L2.16113 2.57468C3.54235 2.44455 4.87661 2.0054 6.06511 1.28974L6.58141 0.978849Z" fill="#455A64"/>
</svg>
