<svg width="22" height="16" viewBox="0 0 22 16" fill="none" xmlns="http://www.w3.org/2000/svg">
<path fill-rule="evenodd" clip-rule="evenodd" d="M21.1218 0.815794C21.3022 0.995771 21.4453 1.20958 21.543 1.44496C21.6407 1.68035 21.691 1.9327 21.691 2.18754C21.691 2.44239 21.6407 2.69474 21.543 2.93013C21.4453 3.16551 21.3022 3.37932 21.1218 3.5593L9.49676 15.1843C9.31678 15.3647 9.10298 15.5079 8.86759 15.6056C8.6322 15.7032 8.37986 15.7535 8.12501 15.7535C7.87016 15.7535 7.61782 15.7032 7.38243 15.6056C7.14704 15.5079 6.93323 15.3647 6.75326 15.1843L0.940757 9.37179C0.760616 9.19165 0.61772 8.9778 0.520228 8.74243C0.422737 8.50707 0.372559 8.2548 0.372559 8.00004C0.372559 7.74529 0.422737 7.49302 0.520228 7.25766C0.61772 7.02229 0.760616 6.80843 0.940757 6.62829C1.1209 6.44815 1.33476 6.30526 1.57012 6.20777C1.80549 6.11027 2.05775 6.0601 2.31251 6.0601C2.56726 6.0601 2.81953 6.11027 3.05489 6.20777C3.29026 6.30526 3.50412 6.44815 3.68426 6.62829L8.12501 11.0729L18.3783 0.815794C18.5582 0.635362 18.772 0.492208 19.0074 0.394533C19.2428 0.296858 19.4952 0.246582 19.75 0.246582C20.0049 0.246582 20.2572 0.296858 20.4926 0.394533C20.728 0.492208 20.9418 0.635362 21.1218 0.815794Z" fill="#DC143C"/>
</svg>
