<svg width="18" height="18" viewBox="0 0 18 18" fill="none" xmlns="http://www.w3.org/2000/svg">
<path fill-rule="evenodd" clip-rule="evenodd" d="M1.59187 12.2321C-0.655998 6.72342 3.40311 0.696289 9.36092 0.696289H9.68235C14.138 0.696289 17.75 4.30255 17.75 8.75109C17.75 13.704 13.7284 17.7191 8.76763 17.7191H0.947353C0.629096 17.7191 0.345494 17.5186 0.239866 17.2189C0.134238 16.9191 0.229589 16.5855 0.477731 16.3865L2.44922 14.8057C2.53543 14.7366 2.56592 14.6192 2.5242 14.5169L1.59187 12.2321ZM9.36092 2.1939C4.46839 2.1939 1.13507 7.14336 2.98101 11.6671L3.91334 13.9519C4.20534 14.6675 3.99189 15.4896 3.38847 15.9734L3.07902 16.2215H8.76763C12.9 16.2215 16.25 12.8769 16.25 8.75109C16.25 5.12965 13.3096 2.1939 9.68235 2.1939H9.36092Z" fill="#DC143C"/>
</svg>
