<svg width="16" height="15" viewBox="0 0 16 15" fill="none" xmlns="http://www.w3.org/2000/svg">
<path d="M7.38267 1.38275C7.59601 0.820983 8.40334 0.820983 8.61734 1.38275L9.99734 5.19933C10.0455 5.32366 10.1303 5.43049 10.2405 5.50571C10.3507 5.58093 10.4812 5.62101 10.6147 5.62066H14.006C14.6327 5.62066 14.906 6.39942 14.4133 6.78081L12 8.94869C11.8919 9.03166 11.8129 9.14669 11.7743 9.27727C11.7358 9.40785 11.7396 9.54727 11.7853 9.67553L12.6667 13.4049C12.8813 14.004 12.1867 14.5185 11.6613 14.1497L8.38334 12.073C8.27108 11.9943 8.13721 11.952 8.00001 11.952C7.8628 11.952 7.72893 11.9943 7.61667 12.073L4.33867 14.1497C3.81401 14.5185 3.11867 14.0033 3.33334 13.4049L4.21467 9.67553C4.26039 9.54727 4.26424 9.40785 4.22568 9.27727C4.18711 9.14669 4.10811 9.03166 4.00001 8.94869L1.58667 6.78081C1.09334 6.39942 1.36801 5.62066 1.99334 5.62066H5.38467C5.5182 5.62111 5.64872 5.58106 5.75895 5.50583C5.86918 5.43059 5.95394 5.32371 6.00201 5.19933L7.38201 1.38275H7.38267Z" fill="#F0C21F" stroke="#F0C21F" stroke-linecap="round" stroke-linejoin="round"/>
</svg>
