<svg width="24" height="24" viewBox="0 0 24 24" fill="none" xmlns="http://www.w3.org/2000/svg">
<path d="M1.39045 22.6056L1.39453 22.6097C1.50267 22.7186 1.63128 22.8051 1.77296 22.8642C1.91464 22.9232 2.0666 22.9537 2.22009 22.9539C2.34925 22.9538 2.47752 22.9325 2.59978 22.8908L9.25631 20.6327L22.0297 7.8593C22.8106 7.07836 23.2493 6.0192 23.2492 4.91483C23.2492 3.81046 22.8104 2.75134 22.0295 1.97047C21.2485 1.18959 20.1894 0.750928 19.085 0.750977C17.9806 0.751025 16.9215 1.18978 16.1407 1.97072L3.36722 14.7442L1.10934 21.4005C1.03822 21.6075 1.02687 21.8303 1.07659 22.0435C1.12631 22.2566 1.23509 22.4515 1.39045 22.6056ZM17.2014 3.03136C17.7016 2.53492 18.3782 2.25695 19.083 2.2583C19.7878 2.25965 20.4633 2.54023 20.9617 3.03859C21.46 3.53694 21.7406 4.21247 21.7419 4.91725C21.7432 5.62202 21.4652 6.29861 20.9688 6.79885L19.2891 8.47857L15.5216 4.71108L17.2014 3.03136ZM4.6755 15.5572L14.4609 5.77172L18.2284 9.53921L8.44294 19.3246L2.74134 21.2588L4.6755 15.5572Z" fill="#DC143C"/>
</svg>